<?xml version="1.0" encoding="UTF-8"?>
<svg width="30px" height="30px" viewBox="0 0 30 30" version="1.1" xmlns="http://www.w3.org/2000/svg" xmlns:xlink="http://www.w3.org/1999/xlink">
    <!-- Generator: Sketch 63.1 (92452) - https://sketch.com -->
    <title>dribbble</title>
    <desc>Created with Sketch.</desc>
    <g id="Page-1" stroke="none" stroke-width="1" fill="none" fill-rule="evenodd">
        <g id="Desktop-HD" transform="translate(-1203.000000, -53.000000)" fill="#FFFFFF" fill-rule="nonzero">
            <g id="linkedin-in-brands" transform="translate(1204.000000, 53.000000)">
                <g id="dribbble-brands" transform="translate(-0.357405, 0.371453)">
                    <path d="M14.5,0 C6.50465323,0 -1.83162127e-13,6.53190939 -1.83162127e-13,14.5607587 C-1.83162127e-13,22.5896081 6.50465323,29.1215174 14.5,29.1215174 C22.4953468,29.1215174 29,22.5896081 29,14.5607587 C29,6.53190939 22.4953468,0 14.5,0 Z M24.0869556,6.71474086 C25.8119294,8.83110017 26.8565141,11.5266606 26.8837601,14.46218 C26.4754214,14.3754613 22.3806915,13.5414469 18.2596512,14.0618766 C17.9233448,13.2374911 17.6059234,12.5122713 17.1711573,11.6186048 C21.7504093,9.74114759 23.8258387,7.0694245 24.0869556,6.71474086 L24.0869556,6.71474086 Z M22.7100988,5.27651366 C22.4873367,5.59514768 20.6229758,8.11151686 16.2189516,9.76915356 C14.1894194,6.02469006 11.9399899,2.94861235 11.5976613,2.4883045 C15.5252903,1.53756915 19.6642218,2.56286967 22.7100988,5.27651366 L22.7100988,5.27651366 Z M9.23445363,3.32431516 C9.56099597,3.77399601 11.7741754,6.85389004 13.8263347,10.5171538 C8.03294153,12.0620621 2.93028629,12.0398099 2.3763629,12.0324709 C3.17947581,8.17310652 5.76947984,4.96551229 9.23445363,3.32431516 Z M2.11477823,14.5797229 C2.11477823,14.4525511 2.11729234,14.3259665 2.12109274,14.1996754 C2.66297177,14.2108308 8.66480242,14.2885078 14.849871,12.4297212 C15.2044194,13.126524 15.543123,13.8338363 15.853996,14.5403854 C11.3754254,15.8071127 7.3063629,19.4444842 5.29875605,22.8955601 C3.32061694,20.690662 2.11477823,17.7741068 2.11477823,14.5797229 Z M6.89784879,24.3913845 C8.19156452,21.7356313 11.7026109,18.3074533 16.6958145,16.5969164 C18.4346452,21.1344129 19.1537399,24.9372368 19.3379133,26.028413 C15.3555585,27.7318457 10.566875,27.2644923 6.89784879,24.3913845 L6.89784879,24.3913845 Z M21.4200665,24.8897969 C21.2931331,24.1332246 20.6339093,20.4923891 19.014002,16.0222362 C22.8950907,15.3983546 26.3049294,16.419604 26.7286452,16.55388 C26.1765927,20.0144674 24.1985706,23.0031219 21.4200665,24.8897969 Z" id="dribbble"></path>
                </g>
            </g>
        </g>
    </g>
</svg>