<?xml version="1.0" encoding="UTF-8"?>
<svg width="33px" height="31px" viewBox="0 0 33 31" version="1.1" xmlns="http://www.w3.org/2000/svg" xmlns:xlink="http://www.w3.org/1999/xlink">
    <!-- Generator: Sketch 63.1 (92452) - https://sketch.com -->
    <title>github</title>
    <desc>Created with Sketch.</desc>
    <g id="Page-1" stroke="none" stroke-width="1" fill="none" fill-rule="evenodd" fill-opacity="0.898295796" opacity="0.9">
        <g id="Desktop-HD" transform="translate(-1270.000000, -49.000000)" fill="#FFFFFF" fill-rule="nonzero">
            <g id="github" transform="translate(1271.000000, 50.000000)">
                <g id="github-brands" transform="translate(-0.357405, -0.032001)">
                    <path d="M10.7032258,23.7729128 C10.7032258,23.895013 10.5548387,23.9926931 10.3677419,23.9926931 C10.1548387,24.0110082 10.0064516,23.913328 10.0064516,23.7729128 C10.0064516,23.6508125 10.1548387,23.5531324 10.3419355,23.5531324 C10.5354839,23.5348173 10.7032258,23.6324975 10.7032258,23.7729128 Z M8.69677419,23.4981873 C8.6516129,23.6202875 8.78064516,23.7607027 8.97419355,23.7973328 C9.14193548,23.8583829 9.33548387,23.7973328 9.37419355,23.6752326 C9.41290323,23.5531324 9.29032258,23.4127171 9.09677419,23.357772 C8.92903226,23.3150369 8.74193548,23.376087 8.69677419,23.4981873 Z M11.5483871,23.3944021 C11.3612903,23.4371371 11.2322581,23.5531324 11.2516129,23.6935476 C11.2709677,23.8156478 11.4387097,23.895013 11.6322581,23.8522779 C11.8193548,23.8095428 11.9483871,23.6935476 11.9290323,23.5714474 C11.9096774,23.4554522 11.7354839,23.376087 11.5483871,23.3944021 Z M15.7935484,0 C6.84516129,0 0,6.42857656 0,14.8962268 C0,21.666684 4.50322581,27.4603394 10.9354839,29.499413 C11.7612903,29.6398283 12.0516129,29.1575324 12.0516129,28.7607067 C12.0516129,28.382196 12.0322581,26.2942823 12.0322581,25.01223 C12.0322581,25.01223 7.51612903,25.9279816 6.56774194,23.1929367 C6.56774194,23.1929367 5.83225806,21.4163785 4.77419355,20.9585027 C4.77419355,20.9585027 3.29677419,20.000016 4.87741935,20.018331 C4.87741935,20.018331 6.48387097,20.1404312 7.36774194,21.5934238 C8.78064516,23.9499581 11.1483871,23.2723019 12.0709677,22.8693711 C12.2193548,21.8925694 12.6387097,21.2149132 13.1032258,20.8119824 C9.49677419,20.4334717 5.85806452,19.9389659 5.85806452,14.0659453 C5.85806452,12.3870673 6.3483871,11.5445758 7.38064516,10.4700938 C7.21290323,10.0732681 6.66451613,8.43712517 7.5483871,6.32479137 C8.89677419,5.92796566 12,7.97314434 12,7.97314434 C13.2903226,7.63126372 14.6774194,7.4542184 16.0516129,7.4542184 C17.4258065,7.4542184 18.8129032,7.63126372 20.1032258,7.97314434 C20.1032258,7.97314434 23.2064516,5.92186065 24.5548387,6.32479137 C25.4387097,8.44323018 24.8903226,10.0732681 24.7225806,10.4700938 C25.7548387,11.5506808 26.3870968,12.3931723 26.3870968,14.0659453 C26.3870968,19.9572809 22.5870968,20.4273667 18.9806452,20.8119824 C19.5741935,21.2942783 20.0774194,22.2100299 20.0774194,23.6447075 C20.0774194,25.7020962 20.0580645,28.2478858 20.0580645,28.7484967 C20.0580645,29.1453224 20.3548387,29.6276183 21.1741935,29.487203 C27.6258065,27.4603394 32,21.666684 32,14.8962268 C32,6.42857656 24.7419355,0 15.7935484,0 Z M6.27096774,21.0561829 C6.18709677,21.117233 6.20645161,21.2576482 6.31612903,21.3736434 C6.41935484,21.4713236 6.56774194,21.5140587 6.6516129,21.4346935 C6.73548387,21.3736434 6.71612903,21.2332282 6.60645161,21.117233 C6.50322581,21.0195528 6.35483871,20.9768177 6.27096774,21.0561829 Z M5.57419355,20.561677 C5.52903226,20.6410421 5.59354839,20.7387223 5.72258065,20.7997724 C5.82580645,20.8608225 5.95483871,20.8425075 6,20.7570373 C6.04516129,20.6776722 5.98064516,20.579992 5.8516129,20.5189419 C5.72258065,20.4823118 5.61935484,20.5006269 5.57419355,20.561677 Z M7.66451613,22.7350609 C7.56129032,22.814426 7.6,22.9975764 7.7483871,23.1135716 C7.89677419,23.2539868 8.08387097,23.2723019 8.16774194,23.1746217 C8.2516129,23.0952565 8.21290323,22.9121062 8.08387097,22.796111 C7.94193548,22.6556957 7.7483871,22.6373807 7.66451613,22.7350609 Z M6.92903226,21.8376243 C7.03225806,21.7582591 7.2,21.8193092 7.29032258,21.9597245 C7.39354839,22.1001397 7.39354839,22.25887 7.29032258,22.3382352 C7.20645161,22.3992853 7.03225806,22.3382352 6.92903226,22.1978199 C6.82580645,22.0574047 6.82580645,21.8986744 6.92903226,21.8376243 Z" id="github"></path>
                </g>
            </g>
        </g>
    </g>
</svg>