<?xml version="1.0" encoding="UTF-8"?>
<svg width="28px" height="28px" viewBox="0 0 28 28" version="1.1" xmlns="http://www.w3.org/2000/svg" xmlns:xlink="http://www.w3.org/1999/xlink">
    <!-- Generator: Sketch 63.1 (92452) - https://sketch.com -->
    <title>linkedin</title>
    <desc>Created with Sketch.</desc>
    <g id="Page-1" stroke="none" stroke-width="1" fill="none" fill-rule="evenodd" opacity="0.9">
        <g id="Desktop-HD" transform="translate(-1341.000000, -53.000000)" fill="#FFFFFF" fill-rule="nonzero">
            <g id="linkedin" transform="translate(1340.000000, 52.000000)">
                <path d="M7.68625557,28.0637149 L2.088577,28.0637149 L2.088577,10.3230447 L7.68625557,10.3230447 L7.68625557,28.0637149 Z M4.88440289,7.90305358 C3.09444754,7.90305358 1.64259486,6.44394129 1.64259486,4.68233011 C1.64259486,2.92028022 3.09400177,1.49185657 4.88440289,1.49185657 C6.67480402,1.49185657 8.12621093,2.92028022 8.12621093,4.68233011 C8.12621093,6.44394129 6.67375557,7.90305358 4.88440289,7.90305358 Z M28.6365681,28.0637149 L23.0509431,28.0637149 L23.0509431,19.4276682 C23.0509431,17.3694894 23.0087556,14.7300383 20.1406083,14.7300383 C17.2302734,14.7300383 16.7842913,16.9661576 16.7842913,19.2793844 L16.7842913,28.0637149 L11.1926395,28.0637149 L11.1926395,10.3230447 L16.5613002,10.3230447 L16.5613002,12.7430358 L16.6396484,12.7430358 C17.3869699,11.3491684 19.2124833,9.8781934 21.9359877,9.8781934 C27.6011663,9.8781934 28.6425949,13.5496995 28.6425949,18.3185056 L28.6425949,28.0637149 L28.6365681,28.0637149 Z"></path>
            </g>
        </g>
    </g>
</svg>